<svg width="269" height="55" viewBox="0 0 269 55" fill="none" xmlns="http://www.w3.org/2000/svg">
<path d="M2.8 43V14.2H12.12C12.3467 14.2 12.8133 14.2067 13.52 14.22C14.2267 14.2333 14.9067 14.28 15.56 14.36C17.88 14.64 19.8467 15.4467 21.46 16.78C23.0733 18.1133 24.3 19.8067 25.14 21.86C25.98 23.9133 26.4 26.16 26.4 28.6C26.4 31.04 25.98 33.2867 25.14 35.34C24.3 37.3933 23.0733 39.0867 21.46 40.42C19.8467 41.7533 17.88 42.56 15.56 42.84C14.9067 42.92 14.2267 42.9667 13.52 42.98C12.8133 42.9933 12.3467 43 12.12 43H2.8ZM8.32 37.88H12.12C12.48 37.88 12.9667 37.8733 13.58 37.86C14.1933 37.8333 14.7467 37.7733 15.24 37.68C16.4933 37.4267 17.5133 36.84 18.3 35.92C19.1 35 19.6867 33.8933 20.06 32.6C20.4467 31.3067 20.64 29.9733 20.64 28.6C20.64 27.16 20.44 25.7933 20.04 24.5C19.6533 23.2067 19.06 22.1133 18.26 21.22C17.46 20.3267 16.4533 19.76 15.24 19.52C14.7467 19.4133 14.1933 19.3533 13.58 19.34C12.9667 19.3267 12.48 19.32 12.12 19.32H8.32V37.88ZM37.1984 43.6C35.6518 43.6 34.3384 43.3067 33.2584 42.72C32.1918 42.12 31.3784 41.3267 30.8184 40.34C30.2718 39.34 29.9984 38.24 29.9984 37.04C29.9984 36.04 30.1518 35.1267 30.4584 34.3C30.7651 33.4733 31.2584 32.7467 31.9384 32.12C32.6318 31.48 33.5584 30.9467 34.7184 30.52C35.5184 30.2267 36.4718 29.9667 37.5784 29.74C38.6851 29.5133 39.9384 29.3 41.3384 29.1C42.7384 28.8867 44.2784 28.6533 45.9584 28.4L43.9984 29.48C43.9984 28.2 43.6918 27.26 43.0784 26.66C42.4651 26.06 41.4384 25.76 39.9984 25.76C39.1984 25.76 38.3651 25.9533 37.4984 26.34C36.6318 26.7267 36.0251 27.4133 35.6784 28.4L30.7584 26.84C31.3051 25.0533 32.3318 23.6 33.8384 22.48C35.3451 21.36 37.3984 20.8 39.9984 20.8C41.9051 20.8 43.5984 21.0933 45.0784 21.68C46.5584 22.2667 47.6784 23.28 48.4384 24.72C48.8651 25.52 49.1184 26.32 49.1984 27.12C49.2784 27.92 49.3184 28.8133 49.3184 29.8V43H44.5584V38.56L45.2384 39.48C44.1851 40.9333 43.0451 41.9867 41.8184 42.64C40.6051 43.28 39.0651 43.6 37.1984 43.6ZM38.3584 39.32C39.3584 39.32 40.1984 39.1467 40.8784 38.8C41.5718 38.44 42.1184 38.0333 42.5184 37.58C42.9318 37.1267 43.2118 36.7467 43.3584 36.44C43.6384 35.8533 43.7984 35.1733 43.8384 34.4C43.8918 33.6133 43.9184 32.96 43.9184 32.44L45.5184 32.84C43.9051 33.1067 42.5984 33.3333 41.5984 33.52C40.5984 33.6933 39.7918 33.8533 39.1784 34C38.5651 34.1467 38.0251 34.3067 37.5584 34.48C37.0251 34.6933 36.5918 34.9267 36.2584 35.18C35.9384 35.42 35.6984 35.6867 35.5384 35.98C35.3918 36.2733 35.3184 36.6 35.3184 36.96C35.3184 37.4533 35.4384 37.88 35.6784 38.24C35.9318 38.5867 36.2851 38.8533 36.7384 39.04C37.1918 39.2267 37.7318 39.32 38.3584 39.32ZM67.4788 43C65.9854 43.28 64.5188 43.4 63.0788 43.36C61.6521 43.3333 60.3721 43.0867 59.2388 42.62C58.1188 42.14 57.2654 41.3733 56.6788 40.32C56.1454 39.3333 55.8654 38.3333 55.8388 37.32C55.8121 36.2933 55.7988 35.1333 55.7988 33.84V15.4H61.2388V33.52C61.2388 34.36 61.2454 35.12 61.2588 35.8C61.2854 36.4667 61.4254 37 61.6788 37.4C62.1588 38.16 62.9254 38.5733 63.9788 38.64C65.0321 38.7067 66.1988 38.6533 67.4788 38.48V43ZM52.1188 25.6V21.4H67.4788V25.6H52.1188ZM78.2922 43.6C76.7455 43.6 75.4322 43.3067 74.3522 42.72C73.2855 42.12 72.4722 41.3267 71.9122 40.34C71.3655 39.34 71.0922 38.24 71.0922 37.04C71.0922 36.04 71.2455 35.1267 71.5522 34.3C71.8589 33.4733 72.3522 32.7467 73.0322 32.12C73.7255 31.48 74.6522 30.9467 75.8122 30.52C76.6122 30.2267 77.5655 29.9667 78.6722 29.74C79.7789 29.5133 81.0322 29.3 82.4322 29.1C83.8322 28.8867 85.3722 28.6533 87.0522 28.4L85.0922 29.48C85.0922 28.2 84.7855 27.26 84.1722 26.66C83.5589 26.06 82.5322 25.76 81.0922 25.76C80.2922 25.76 79.4589 25.9533 78.5922 26.34C77.7255 26.7267 77.1189 27.4133 76.7722 28.4L71.8522 26.84C72.3989 25.0533 73.4255 23.6 74.9322 22.48C76.4389 21.36 78.4922 20.8 81.0922 20.8C82.9989 20.8 84.6922 21.0933 86.1722 21.68C87.6522 22.2667 88.7722 23.28 89.5322 24.72C89.9589 25.52 90.2122 26.32 90.2922 27.12C90.3722 27.92 90.4122 28.8133 90.4122 29.8V43H85.6522V38.56L86.3322 39.48C85.2789 40.9333 84.1389 41.9867 82.9122 42.64C81.6989 43.28 80.1589 43.6 78.2922 43.6ZM79.4522 39.32C80.4522 39.32 81.2922 39.1467 81.9722 38.8C82.6655 38.44 83.2122 38.0333 83.6122 37.58C84.0255 37.1267 84.3055 36.7467 84.4522 36.44C84.7322 35.8533 84.8922 35.1733 84.9322 34.4C84.9855 33.6133 85.0122 32.96 85.0122 32.44L86.6122 32.84C84.9989 33.1067 83.6922 33.3333 82.6922 33.52C81.6922 33.6933 80.8855 33.8533 80.2722 34C79.6589 34.1467 79.1189 34.3067 78.6522 34.48C78.1189 34.6933 77.6855 34.9267 77.3522 35.18C77.0322 35.42 76.7922 35.6867 76.6322 35.98C76.4855 36.2733 76.4122 36.6 76.4122 36.96C76.4122 37.4533 76.5322 37.88 76.7722 38.24C77.0255 38.5867 77.3789 38.8533 77.8322 39.04C78.2855 39.2267 78.8255 39.32 79.4522 39.32Z" fill="white"/>
<path d="M102.32 37.6V30.68H95.4V26.48H102.32V19.6H106.52V26.48H113.4V30.68H106.52V37.6H102.32Z" fill="white"/>
<path d="M125.26 17.14L122.6 16.16L122.8 15.46H132.22L123.82 43H114.52L114.72 42.3L117.88 41.26L125.26 17.14ZM140.86 16.7L142.4 17.38H128.12L128.8 15.46H141.32L144.42 14.06H144.92L143.64 23.68H142.64L140.86 16.7ZM136.08 44.46L133.76 43H120.38L121.06 41.08H135.88L133.2 41.68L140.76 34.28L141.6 34.74L136.64 44.46H136.08ZM134.72 34.06H133.34L133.66 29.62L125.26 29.38L125.8 27.78L134.26 27.5L136.7 23.1H138.08L136.14 28.58L134.72 34.06ZM170.109 41.42L169.009 40.14C169.596 40.1667 170.209 40.0867 170.849 39.9C171.489 39.7133 172.182 39.3733 172.929 38.88C173.689 38.3733 174.536 37.6667 175.469 36.76L176.029 37.28C174.922 38.7733 173.849 39.98 172.809 40.9C171.769 41.82 170.756 42.4867 169.769 42.9C168.796 43.3133 167.849 43.52 166.929 43.52C165.769 43.52 164.996 43.3 164.609 42.86C164.236 42.4067 164.229 41.7267 164.589 40.82L168.309 31.48C168.616 30.7333 168.822 30.1867 168.929 29.84C169.049 29.48 169.109 29.18 169.109 28.94C169.109 28.6333 169.016 28.3933 168.829 28.22C168.656 28.0467 168.382 27.96 168.009 27.96C167.556 27.96 167.062 28.1467 166.529 28.52C165.996 28.88 165.449 29.4133 164.889 30.12C164.342 30.8267 163.802 31.6933 163.269 32.72C162.749 33.7467 162.262 34.9133 161.809 36.22L159.529 43H153.769L157.769 31.16C157.929 30.68 158.049 30.2933 158.129 30C158.222 29.6933 158.289 29.4467 158.329 29.26C158.369 29.0733 158.389 28.92 158.389 28.8C158.389 28.52 158.302 28.3133 158.129 28.18C157.969 28.0333 157.722 27.96 157.389 27.96C156.949 27.96 156.469 28.1533 155.949 28.54C155.429 28.9267 154.896 29.4867 154.349 30.22C153.816 30.9533 153.296 31.84 152.789 32.88C152.282 33.9067 151.816 35.0667 151.389 36.36L149.209 43H143.609L148.369 28.04C148.382 27.9067 148.362 27.8 148.309 27.72C148.269 27.6267 148.176 27.58 148.029 27.58C147.602 27.58 147.176 27.68 146.749 27.88C146.336 28.08 145.889 28.4733 145.409 29.06C144.942 29.6467 144.402 30.5267 143.789 31.7L143.089 31.42C143.809 29.4867 144.562 27.98 145.349 26.9C146.136 25.8067 146.989 25.04 147.909 24.6C148.829 24.1467 149.836 23.92 150.929 23.92C151.396 23.92 151.809 23.9333 152.169 23.96C152.542 23.9867 152.902 24.0333 153.249 24.1C153.609 24.1667 154.002 24.2533 154.429 24.36L151.649 33.64L151.489 33.42C152.396 31.5 153.242 29.92 154.029 28.68C154.816 27.4267 155.569 26.4533 156.289 25.76C157.022 25.0667 157.742 24.58 158.449 24.3C159.156 24.02 159.869 23.88 160.589 23.88C161.749 23.88 162.596 24.1533 163.129 24.7C163.676 25.2467 163.949 25.9733 163.949 26.88C163.949 27.2533 163.902 27.68 163.809 28.16C163.716 28.64 163.549 29.2467 163.309 29.98L162.109 34.02H161.709C162.656 32.0067 163.536 30.3467 164.349 29.04C165.176 27.72 165.969 26.6867 166.729 25.94C167.489 25.18 168.249 24.6467 169.009 24.34C169.769 24.0333 170.549 23.88 171.349 23.88C172.709 23.88 173.676 24.18 174.249 24.78C174.836 25.38 175.129 26.14 175.129 27.06C175.129 27.5533 175.056 28.1267 174.909 28.78C174.776 29.42 174.509 30.2467 174.109 31.26L170.109 41.42ZM189.126 23.88C190.619 23.88 191.873 24.1667 192.886 24.74C193.913 25.3 194.686 26.1 195.206 27.14C195.726 28.18 195.986 29.4067 195.986 30.82C195.986 32.5267 195.679 34.1467 195.066 35.68C194.453 37.2 193.606 38.5533 192.526 39.74C191.459 40.9133 190.219 41.84 188.806 42.52C187.406 43.1867 185.906 43.52 184.306 43.52C182.826 43.52 181.573 43.24 180.546 42.68C179.533 42.1067 178.766 41.3 178.246 40.26C177.726 39.22 177.466 37.9933 177.466 36.58C177.466 34.8733 177.773 33.26 178.386 31.74C178.999 30.2067 179.839 28.8533 180.906 27.68C181.986 26.4933 183.226 25.5667 184.626 24.9C186.039 24.22 187.539 23.88 189.126 23.88ZM184.126 41.94C184.713 41.94 185.313 41.6467 185.926 41.06C186.553 40.4733 187.153 39.6867 187.726 38.7C188.299 37.7133 188.813 36.6067 189.266 35.38C189.733 34.1533 190.099 32.8933 190.366 31.6C190.633 30.3067 190.766 29.0733 190.766 27.9C190.766 27.0067 190.646 26.38 190.406 26.02C190.166 25.6467 189.799 25.46 189.306 25.46C188.733 25.46 188.133 25.7533 187.506 26.34C186.879 26.9267 186.279 27.72 185.706 28.72C185.133 29.7067 184.619 30.8133 184.166 32.04C183.713 33.2667 183.353 34.5267 183.086 35.82C182.819 37.1 182.686 38.3267 182.686 39.5C182.686 40.3933 182.799 41.0267 183.026 41.4C183.266 41.76 183.633 41.94 184.126 41.94ZM198.73 26.12L199.11 24.4H212.99L212.63 26.12H198.73ZM205.17 35.6C204.943 36.2667 204.77 36.8 204.65 37.2C204.543 37.6 204.47 37.92 204.43 38.16C204.403 38.3867 204.39 38.58 204.39 38.74C204.39 39.0067 204.456 39.2 204.59 39.32C204.723 39.44 204.903 39.5 205.13 39.5C205.423 39.5 205.77 39.3933 206.17 39.18C206.583 38.9533 207.07 38.58 207.63 38.06C208.19 37.5267 208.843 36.8133 209.59 35.92L210.27 36.44C209.376 37.8533 208.516 39.02 207.69 39.94C206.863 40.86 206.076 41.5867 205.33 42.12C204.596 42.64 203.896 43 203.23 43.2C202.563 43.4133 201.93 43.52 201.33 43.52C200.503 43.52 199.81 43.2867 199.25 42.82C198.703 42.3533 198.43 41.52 198.43 40.32C198.43 39.88 198.496 39.2867 198.63 38.54C198.776 37.7933 199.03 36.86 199.39 35.74L204.69 19.48H210.47L205.17 35.6ZM212.319 40.68L217.679 26.22L218.699 27.46C218.019 27.3933 217.372 27.4533 216.759 27.64C216.146 27.8267 215.506 28.1667 214.839 28.66C214.186 29.1533 213.439 29.84 212.599 30.72L212.019 30.22C213.059 28.7 214.086 27.48 215.099 26.56C216.126 25.64 217.132 24.9733 218.119 24.56C219.119 24.1467 220.086 23.94 221.019 23.94C222.152 23.94 222.879 24.16 223.199 24.6C223.519 25.04 223.512 25.72 223.179 26.64L217.819 41.42L216.499 40.2C217.112 40.24 217.732 40.18 218.359 40.02C218.999 39.8467 219.692 39.52 220.439 39.04C221.186 38.5467 222.012 37.84 222.919 36.92L223.459 37.44C222.419 38.88 221.386 40.0533 220.359 40.96C219.346 41.8533 218.352 42.5067 217.379 42.92C216.419 43.32 215.479 43.52 214.559 43.52C213.399 43.52 212.646 43.3 212.299 42.86C211.952 42.4067 211.959 41.68 212.319 40.68ZM219.739 17.4C219.739 16.7733 219.886 16.2133 220.179 15.72C220.472 15.2133 220.872 14.82 221.379 14.54C221.886 14.2467 222.472 14.1 223.139 14.1C224.059 14.1 224.812 14.3933 225.399 14.98C225.986 15.5667 226.279 16.3067 226.279 17.2C226.279 17.8267 226.132 18.3867 225.839 18.88C225.546 19.3733 225.146 19.7733 224.639 20.08C224.132 20.3733 223.552 20.52 222.899 20.52C221.966 20.52 221.206 20.22 220.619 19.62C220.032 19.02 219.739 18.28 219.739 17.4ZM236.704 23.88C238.197 23.88 239.451 24.1667 240.464 24.74C241.491 25.3 242.264 26.1 242.784 27.14C243.304 28.18 243.564 29.4067 243.564 30.82C243.564 32.5267 243.257 34.1467 242.644 35.68C242.031 37.2 241.184 38.5533 240.104 39.74C239.037 40.9133 237.797 41.84 236.384 42.52C234.984 43.1867 233.484 43.52 231.884 43.52C230.404 43.52 229.151 43.24 228.124 42.68C227.111 42.1067 226.344 41.3 225.824 40.26C225.304 39.22 225.044 37.9933 225.044 36.58C225.044 34.8733 225.351 33.26 225.964 31.74C226.577 30.2067 227.417 28.8533 228.484 27.68C229.564 26.4933 230.804 25.5667 232.204 24.9C233.617 24.22 235.117 23.88 236.704 23.88ZM231.704 41.94C232.291 41.94 232.891 41.6467 233.504 41.06C234.131 40.4733 234.731 39.6867 235.304 38.7C235.877 37.7133 236.391 36.6067 236.844 35.38C237.311 34.1533 237.677 32.8933 237.944 31.6C238.211 30.3067 238.344 29.0733 238.344 27.9C238.344 27.0067 238.224 26.38 237.984 26.02C237.744 25.6467 237.377 25.46 236.884 25.46C236.311 25.46 235.711 25.7533 235.084 26.34C234.457 26.9267 233.857 27.72 233.284 28.72C232.711 29.7067 232.197 30.8133 231.744 32.04C231.291 33.2667 230.931 34.5267 230.664 35.82C230.397 37.1 230.264 38.3267 230.264 39.5C230.264 40.3933 230.377 41.0267 230.604 41.4C230.844 41.76 231.211 41.94 231.704 41.94ZM245.977 31.7L245.277 31.42C245.997 29.4867 246.75 27.98 247.537 26.9C248.323 25.8067 249.177 25.04 250.097 24.6C251.017 24.1467 252.023 23.92 253.117 23.92C253.597 23.92 254.017 23.9333 254.377 23.96C254.737 23.9867 255.097 24.0333 255.457 24.1C255.817 24.1667 256.217 24.2533 256.657 24.36L253.817 33.84L253.637 33.66C254.557 31.78 255.437 30.2133 256.277 28.96C257.117 27.6933 257.93 26.6933 258.717 25.96C259.503 25.2133 260.29 24.68 261.077 24.36C261.877 24.04 262.683 23.88 263.497 23.88C264.897 23.88 265.897 24.1933 266.497 24.82C267.097 25.4333 267.397 26.2067 267.397 27.14C267.397 27.6333 267.323 28.2 267.177 28.84C267.043 29.4667 266.783 30.2667 266.397 31.24L262.397 41.42L261.277 40.14C261.877 40.1667 262.49 40.0867 263.117 39.9C263.757 39.7133 264.457 39.3733 265.217 38.88C265.977 38.3733 266.817 37.6667 267.737 36.76L268.297 37.28C267.19 38.7733 266.117 39.98 265.077 40.9C264.037 41.82 263.03 42.4867 262.057 42.9C261.083 43.3133 260.13 43.52 259.197 43.52C258.037 43.52 257.263 43.3 256.877 42.86C256.503 42.4067 256.497 41.7267 256.857 40.82L260.577 31.5C260.883 30.7533 261.09 30.2067 261.197 29.86C261.317 29.5 261.377 29.2067 261.377 28.98C261.377 28.66 261.277 28.4133 261.077 28.24C260.89 28.0533 260.583 27.96 260.157 27.96C259.65 27.96 259.097 28.16 258.497 28.56C257.91 28.96 257.317 29.5333 256.717 30.28C256.117 31.0267 255.543 31.92 254.997 32.96C254.463 33.9867 253.99 35.1267 253.577 36.38L251.397 43H245.797L250.557 28.04C250.57 27.9067 250.55 27.8 250.497 27.72C250.457 27.6267 250.363 27.58 250.217 27.58C249.79 27.58 249.363 27.68 248.937 27.88C248.523 28.08 248.077 28.4733 247.597 29.06C247.13 29.6467 246.59 30.5267 245.977 31.7Z" fill="white"/>
</svg>
