<svg width="81" height="55" viewBox="0 0 81 55" fill="none" xmlns="http://www.w3.org/2000/svg">
<path d="M2.8 43V14.2H12.12C12.3467 14.2 12.8133 14.2067 13.52 14.22C14.2267 14.2333 14.9067 14.28 15.56 14.36C17.88 14.64 19.8467 15.4467 21.46 16.78C23.0733 18.1133 24.3 19.8067 25.14 21.86C25.98 23.9133 26.4 26.16 26.4 28.6C26.4 31.04 25.98 33.2867 25.14 35.34C24.3 37.3933 23.0733 39.0867 21.46 40.42C19.8467 41.7533 17.88 42.56 15.56 42.84C14.9067 42.92 14.2267 42.9667 13.52 42.98C12.8133 42.9933 12.3467 43 12.12 43H2.8ZM8.32 37.88H12.12C12.48 37.88 12.9667 37.8733 13.58 37.86C14.1933 37.8333 14.7467 37.7733 15.24 37.68C16.4933 37.4267 17.5133 36.84 18.3 35.92C19.1 35 19.6867 33.8933 20.06 32.6C20.4467 31.3067 20.64 29.9733 20.64 28.6C20.64 27.16 20.44 25.7933 20.04 24.5C19.6533 23.2067 19.06 22.1133 18.26 21.22C17.46 20.3267 16.4533 19.76 15.24 19.52C14.7467 19.4133 14.1933 19.3533 13.58 19.34C12.9667 19.3267 12.48 19.32 12.12 19.32H8.32V37.88Z" fill="white"/>
<path d="M38.32 37.6V30.68H31.4V26.48H38.32V19.6H42.52V26.48H49.4V30.68H42.52V37.6H38.32Z" fill="white"/>
<path d="M61.26 17.14L58.6 16.16L58.8 15.46H68.22L59.82 43H50.52L50.72 42.3L53.88 41.26L61.26 17.14ZM76.86 16.7L78.4 17.38H64.12L64.8 15.46H77.32L80.42 14.06H80.92L79.64 23.68H78.64L76.86 16.7ZM72.08 44.46L69.76 43H56.38L57.06 41.08H71.88L69.2 41.68L76.76 34.28L77.6 34.74L72.64 44.46H72.08ZM70.72 34.06H69.34L69.66 29.62L61.26 29.38L61.8 27.78L70.26 27.5L72.7 23.1H74.08L72.14 28.58L70.72 34.06Z" fill="white"/>
</svg>
